<?xml version="1.0" encoding="utf-8"?>
<!-- Generator: Adobe Illustrator 19.2.1, SVG Export Plug-In . SVG Version: 6.00 Build 0)  -->
<svg version="1.1" id="Layer_1" xmlns="http://www.w3.org/2000/svg" xmlns:xlink="http://www.w3.org/1999/xlink" x="0px" y="0px" viewBox="0 0 512 512" style="enable-background:new 0 0 512 512;" xml:space="preserve">
	<style type="text/css">
		.st0 {
			clip-path: url(#SVGID_2_);
		}

		.st1 {
			fill: #02A8F4;
		}

		.st2 {
			fill: #FFFFFF;
		}

		.st3 {
			fill: #F2504D;
		}

		.st4 {
			fill: #E5E4E9;
		}

		.st5 {
			fill: #FF0000;
		}

		.st6 {
			fill: #FFFF00;
		}

		.st7 {
			fill: #00FF00;
		}

		.st8 {
			fill-opacity: 0;
		}

	</style>
	<g>
		<defs>
			<rect id="SVGID_1_" width="512" height="512" />
		</defs>
		<clipPath id="SVGID_2_">
			<use xlink:href="#SVGID_1_" style="overflow:visible;" />
		</clipPath>
		<g class="st0">
			<path class="st1" d="M58.7,256L58.7,256C58.7,147,147,58.7,256,58.7l0,0c52.3,0,102.5,20.8,139.5,57.8s57.8,87.2,57.8,139.5l0,0
			c0,109-88.3,197.3-197.3,197.3l0,0C147,453.3,58.7,365,58.7,256z" />
			<path class="st2" d="M149.2,161.9L149.2,161.9c0-7,5.7-12.7,12.7-12.7h188.2c3.4,0,6.6,1.3,8.9,3.7c2.4,2.4,3.7,5.6,3.7,8.9v188.2
			c0,7-5.7,12.7-12.7,12.7H161.9c-7,0-12.7-5.7-12.7-12.7V161.9z" />
			<path class="st3" d="M166,202.4H346v133.6H166V202.4z" />
			<path class="st4" d="M154.2,149.2h203.6c1.3,0,2.6,0.5,3.5,1.5c0.9,0.9,1.5,2.2,1.5,3.5v24.9c0,0,0,0,0,0l-213.5,0l0,0
			c0,0,0,0,0,0l0-24.9l0,0C149.2,151.5,151.5,149.2,154.2,149.2z" />
			<path class="st5" d="M158.7,164.2L158.7,164.2c0-4,3.2-7.2,7.2-7.2l0,0c1.9,0,3.7,0.8,5.1,2.1c1.4,1.4,2.1,3.2,2.1,5.1l0,0
			c0,4-3.2,7.2-7.2,7.2l0,0C162,171.4,158.7,168.2,158.7,164.2z" />
			<path class="st6" d="M179.2,164.2L179.2,164.2c0-4,3.2-7.2,7.2-7.2l0,0c1.9,0,3.7,0.8,5.1,2.1c1.4,1.4,2.1,3.2,2.1,5.1l0,0
			c0,4-3.2,7.2-7.2,7.2l0,0C182.4,171.4,179.2,168.2,179.2,164.2z" />
			<path class="st7" d="M199.6,164.2L199.6,164.2c0-4,3.2-7.2,7.2-7.2l0,0c1.9,0,3.7,0.8,5.1,2.1c1.4,1.4,2.1,3.2,2.1,5.1l0,0
			c0,4-3.2,7.2-7.2,7.2l0,0C202.8,171.4,199.6,168.2,199.6,164.2z" />
			<path class="st8" d="M166,202.4H346v133.6H166V202.4z" />
			<path class="st2" d="M241.1,291.4l-39.3-17.1v-9.5l39.3-17v11.1l-27.4,10.5l27.4,10.9V291.4z M244.8,298.9l14.2-59.2h8.3
			l-14.3,59.2H244.8z M270.8,291.5v-11.1l27.4-10.8L270.8,259v-11l39.3,17v9.4L270.8,291.5z" />
		</g>
	</g>
</svg>
