<?xml version="1.0" standalone="no"?>
<!DOCTYPE svg PUBLIC "-//W3C//DTD SVG 20010904//EN"
 "http://www.w3.org/TR/2001/REC-SVG-20010904/DTD/svg10.dtd">
<svg version="1.0" xmlns="http://www.w3.org/2000/svg"
 width="700.000000pt" height="700.000000pt" viewBox="0 0 700.000000 700.000000"
 preserveAspectRatio="xMidYMid meet">
<metadata>
Created by potrace 1.11, written by Peter Selinger 2001-2013
</metadata>
<g transform="translate(0.000000,700.000000) scale(0.100000,-0.100000)"
fill="#000000" stroke="none">
<path d="M3340 6189 c-479 -27 -931 -178 -1330 -444 -172 -115 -274 -198 -415
-340 -432 -433 -694 -971 -771 -1582 -21 -169 -21 -477 0 -646 105 -837 577
-1562 1295 -1991 329 -196 673 -314 1060 -362 167 -21 476 -21 645 0 1148 144
2068 984 2311 2111 32 150 44 243 54 418 30 513 -94 1040 -348 1482 -514 894
-1472 1413 -2501 1354z m1597 -1251 l23 -21 0 -1368 c0 -942 -3 -1376 -11
-1396 -14 -38 -57 -83 -96 -99 -27 -12 -254 -14 -1352 -14 -908 0 -1328 3
-1348 11 -38 14 -83 57 -99 96 -12 27 -14 261 -14 1400 l0 1367 22 23 21 23
1416 0 1415 0 23 -22z"/>
<path d="M2243 4852 c-34 -5 -73 -58 -73 -99 0 -25 8 -43 29 -64 56 -55 148
-30 167 45 7 28 -10 78 -31 96 -18 15 -66 26 -92 22z"/>
<path d="M2270 3320 l0 -910 1230 0 1230 0 0 910 0 910 -1230 0 -1230 0 0
-910z m1380 391 c0 -5 -43 -186 -95 -402 -52 -216 -95 -394 -95 -396 0 -2 -25
-3 -55 -3 -30 0 -55 4 -55 10 0 9 176 748 186 783 4 13 17 17 60 17 30 0 54
-4 54 -9z m-350 -175 l0 -74 -117 -45 c-65 -26 -145 -56 -178 -68 -33 -12 -63
-25 -67 -28 -4 -3 76 -39 177 -80 l185 -73 0 -74 c0 -41 -3 -74 -7 -74 -5 0
-125 51 -268 114 l-260 113 0 68 0 69 260 113 c143 62 263 113 268 113 4 0 7
-33 7 -74z m625 -21 c72 -31 172 -75 223 -97 l93 -41 -3 -65 -3 -66 -259 -113
c-142 -62 -263 -113 -268 -113 -4 0 -8 33 -8 73 l0 74 185 73 c102 40 184 75
182 76 -2 2 -84 34 -183 73 l-179 69 -3 76 -3 76 48 -19 c26 -11 107 -45 178
-76z"/>
</g>
</svg>
